<?xml version="1.0" standalone="no"?>
<!DOCTYPE svg PUBLIC "-//W3C//DTD SVG 20010904//EN"
 "http://www.w3.org/TR/2001/REC-SVG-20010904/DTD/svg10.dtd">
<svg version="1.0" xmlns="http://www.w3.org/2000/svg"
 width="2400.000000pt" height="2400.000000pt" viewBox="0 0 2400.000000 2400.000000"
 preserveAspectRatio="xMidYMid meet">
<metadata>
Created by potrace 1.11, written by Peter Selinger 2001-2013
</metadata>
<g transform="translate(0.000000,2400.000000) scale(0.100000,-0.100000)"
fill="#000000" stroke="none">
<path d="M2495 22743 c-630 -82 -1128 -567 -1230 -1198 -22 -136 -22 -18954 0
-19090 96 -593 532 -1051 1125 -1181 83 -18 358 -19 9610 -19 9252 0 9527 1
9610 19 593 130 1029 588 1125 1181 22 136 22 18954 0 19090 -49 304 -187 575
-402 790 -190 190 -417 316 -703 388 l-85 22 -9510 1 c-5230 0 -9523 -1 -9540
-3z m18922 -1275 c22 -14 48 -43 59 -65 19 -37 19 -212 19 -9403 0 -9191 0
-9366 -19 -9403 -11 -22 -37 -51 -59 -65 l-41 -27 -9375 0 -9376 0 -37 23
c-20 13 -47 40 -60 60 l-23 37 0 9375 0 9375 23 36 c24 39 59 67 101 79 14 5
4238 8 9387 7 l9360 -2 41 -27z"/>
<path d="M17420 15555 c-249 -53 -469 -226 -584 -460 -68 -137 -81 -194 -81
-370 0 -174 14 -243 76 -372 107 -223 318 -396 556 -455 119 -29 294 -28 408
1 272 71 500 278 585 534 86 256 53 544 -87 754 -112 169 -287 299 -475 354
-94 27 -303 35 -398 14z"/>
<path d="M19465 15564 c-11 -2 -44 -9 -73 -15 -140 -28 -287 -115 -403 -236
-170 -179 -241 -351 -240 -587 0 -175 43 -334 126 -462 58 -89 208 -232 295
-281 200 -112 450 -139 669 -71 282 87 506 332 565 621 23 109 21 291 -4 394
-70 293 -295 528 -587 614 -66 20 -297 35 -348 23z"/>
<path d="M5474 13535 c-928 -132 -1681 -956 -1858 -2035 -53 -323 -49 -749 10
-1070 96 -531 336 -1014 679 -1369 406 -421 885 -631 1440 -631 363 0 653 81
902 252 43 29 128 103 190 164 l112 111 50 -82 c88 -145 232 -269 364 -314
250 -86 527 -32 710 139 127 119 202 263 227 435 8 58 10 585 8 1910 l-3 1830
-23 75 c-40 129 -87 206 -186 306 -75 75 -106 98 -176 132 -212 103 -495 92
-672 -25 -105 -71 -208 -180 -263 -278 l-35 -62 -118 117 c-219 218 -433 330
-737 386 -126 23 -486 28 -621 9z m731 -1384 c352 -106 594 -424 672 -881 24
-142 21 -431 -5 -580 -35 -195 -100 -363 -198 -512 -148 -223 -353 -349 -620
-379 -583 -65 -1006 360 -1065 1072 -18 212 14 473 78 654 102 284 301 509
527 596 129 50 191 59 376 55 132 -3 179 -8 235 -25z"/>
<path d="M10325 13535 c-309 -43 -560 -137 -812 -304 -382 -253 -636 -651
-694 -1088 -17 -128 -6 -423 20 -538 67 -300 223 -526 481 -697 202 -134 464
-252 1190 -538 326 -128 413 -179 463 -274 29 -55 31 -183 3 -238 -28 -58 -91
-115 -154 -140 -52 -20 -73 -22 -237 -22 -249 0 -330 23 -710 202 -334 157
-428 190 -574 199 -171 10 -292 -38 -422 -167 -131 -131 -185 -260 -196 -470
-9 -179 33 -311 142 -448 211 -264 721 -483 1298 -557 172 -23 506 -31 647
-16 482 50 895 238 1180 538 269 282 400 622 401 1038 0 254 -36 429 -128 607
-58 113 -119 193 -229 298 -151 145 -327 267 -529 365 -60 30 -310 136 -555
236 -245 99 -481 200 -525 222 -104 55 -198 146 -215 207 -25 91 17 214 89
264 79 55 129 70 246 74 200 7 328 -29 725 -206 280 -125 317 -136 440 -135
356 3 602 300 560 676 -21 183 -77 293 -225 443 -114 116 -220 189 -388 269
-196 93 -335 134 -604 181 -185 33 -525 42 -688 19z"/>
<path d="M14700 13544 c-14 -2 -65 -9 -115 -15 -655 -79 -1242 -460 -1610
-1044 -74 -117 -192 -361 -243 -500 -226 -619 -226 -1356 0 -1991 56 -159 179
-403 276 -549 450 -676 1163 -1040 1986 -1012 343 12 753 109 1018 242 246
124 432 284 506 435 54 110 72 184 72 295 0 145 -42 271 -136 402 -87 122
-206 201 -348 229 -72 15 -83 15 -149 -1 -40 -9 -160 -48 -267 -86 -338 -118
-493 -151 -735 -153 -282 -2 -460 67 -641 248 -162 162 -265 373 -321 661 -27
141 -25 454 5 603 77 383 270 651 566 787 127 58 221 77 414 82 260 8 329 -6
657 -130 190 -71 231 -83 325 -93 260 -26 506 146 597 419 25 76 27 94 28 242
0 150 -2 165 -28 240 -57 160 -143 265 -313 378 -223 148 -458 226 -874 288
-100 15 -200 21 -390 24 -140 2 -266 2 -280 -1z"/>
<path d="M17425 13444 c-90 -19 -215 -80 -282 -136 -115 -96 -195 -224 -235
-378 l-23 -85 0 -1850 0 -1850 22 -85 c35 -132 91 -236 177 -327 85 -90 166
-142 281 -180 70 -23 97 -26 215 -27 100 0 152 4 200 18 249 69 439 279 494
548 14 69 16 278 16 1903 0 1988 3 1895 -55 2037 -73 180 -240 337 -419 394
-104 33 -284 42 -391 18z"/>
<path d="M19425 13445 c-206 -45 -376 -179 -466 -370 -81 -168 -74 20 -77
-2030 -2 -1292 0 -1853 8 -1907 33 -235 168 -438 356 -535 120 -63 186 -77
344 -77 118 1 145 4 215 27 115 38 196 90 281 180 87 92 153 214 181 334 17
74 18 170 18 1933 0 2088 7 1909 -77 2080 -34 68 -60 103 -133 176 -74 75
-105 98 -175 132 -47 23 -120 48 -162 57 -93 18 -231 18 -313 0z"/>
</g>
</svg>
